<svg xmlns="http://www.w3.org/2000/svg" viewBox="0 0 103.56 141.85"><g id="Capa_1" data-name="Capa 1"><path d="M52.42,127.77l14.36-15.94a2.45,2.45,0,0,0-3.47-3.47L49,124.3a2.45,2.45,0,0,0,3.47,3.47Z" transform="translate(-1.47 -0.62)" fill="#fff"/><path d="M55.72,28.71c-6.37,7.37-12.84,14.92-17.3,23.65A49.6,49.6,0,0,0,33.62,66c-1,5.65-.83,11.38-1.38,17.07-.48,5-1.76,10.29-5.19,14.12-2.11,2.33,1.35,5.82,3.47,3.46,7.34-8.16,6.47-19.33,7.35-29.52.86-9.82,5.33-18.5,11.05-26.37,3.19-4.39,6.73-8.51,10.27-12.61a2.52,2.52,0,0,0,0-3.48A2.49,2.49,0,0,0,55.72,28.71Z" transform="translate(-1.47 -0.62)" fill="#fff"/><path d="M24.87,99.89c1.76,4.14,3.71,8.54,7.32,11.41s8.62,4.17,13,2.07A2.46,2.46,0,1,0,43,109l-.23.13c-.64.31.34-.06-.34.13l-.48.15c-.24.06-.48.11-.73.15.36,0-.06,0-.2,0a8.55,8.55,0,0,1-1.24,0c-.26,0,.21.06-.22,0l-.74-.17a9.55,9.55,0,0,1-3.93-2.16c-2.74-2.54-4.28-6.23-5.78-9.76a2.48,2.48,0,0,0-3.36-.88,2.52,2.52,0,0,0-.88,3.36Z" transform="translate(-1.47 -0.62)" fill="#fff"/><path d="M50.44,40.85l3.49-10.49L54.39,29l.22-.69c.2-.43,0-.36-.53.2,0,.18,1.34.41,1.56.46a21.42,21.42,0,0,0,4.91.6,12.92,12.92,0,0,0,4.76-.92,39.33,39.33,0,0,0,4.39-2.57c.72-.41,1.84-1,2.5-.21,1,1.12.49,3.1.27,4.37a2.45,2.45,0,1,0,4.73,1.31c.42-2.43.76-4.91-.27-7.19a6.09,6.09,0,0,0-4.29-3.64,8.56,8.56,0,0,0-6.33,1.69c-1.59,1-2.94,2-4.91,2.21a16.69,16.69,0,0,1-5.62-.69c-2.27-.56-4.54-.2-5.54,2.19-.89,2.12-1.5,4.41-2.23,6.59l-2.27,6.87c-1,3,3.74,4.29,4.73,1.29Z" transform="translate(-1.47 -0.62)" fill="#fff"/><path d="M55.28,33.32l17.18-2.63A2.4,2.4,0,0,0,74.21,28a2.49,2.49,0,0,0-2.41-2.13c-8.4-.27-14.9,6.24-19.17,12.77C48,45.77,45.13,54,43.05,62.19c-1.2,4.72-2.15,9.48-3.09,14.25a2.45,2.45,0,1,0,4.73,1.3L58,42.81a2.44,2.44,0,0,0-1.43-2.9,2.48,2.48,0,0,0-3.06,1A166.15,166.15,0,0,0,33.83,79.54a2.47,2.47,0,0,0,1.71,3,2.51,2.51,0,0,0,3-1.72A161.68,161.68,0,0,1,57.78,43.37L53.3,41.48,40,76.42l4.73,1.3c1.56-7.85,3.14-15.7,5.78-23.32,2.43-6.95,5.89-14.17,11.31-19.28,2.75-2.58,6.16-4.48,10-4.36l-.65-4.82L54,28.57a2.48,2.48,0,0,0-1.72,3,2.55,2.55,0,0,0,3,1.72Z" transform="translate(-1.47 -0.62)" fill="#fff"/><path d="M24.55,103.91a17.59,17.59,0,0,0,28.72,8.79,2.47,2.47,0,0,0,0-3.47,2.52,2.52,0,0,0-3.48,0,12.66,12.66,0,0,1-20.49-6.62C28.48,99.55,23.75,100.85,24.55,103.91Z" transform="translate(-1.47 -0.62)" fill="#fff"/><path d="M49.94,109a37.2,37.2,0,0,0-3.33,12.33c-.16,2,.59,4.1,2.57,4.84,2.23.82,4.12-.49,5.79-1.81a115.48,115.48,0,0,0,16.8-16.21A124.52,124.52,0,0,0,80,97.35c1.76-2.63-2.49-5.09-4.24-2.48a114.8,114.8,0,0,1-16,19c-1.54,1.46-3.12,2.89-4.75,4.27-.75.63-1.52,1.27-2.28,1.89-.44.35-.88.73-1.34,1.06-.15.12-.72.36-.76.49s1.14.37,1,.64a7.58,7.58,0,0,0,.08-1.43c.12-1,.31-2,.53-3a32.59,32.59,0,0,1,2.07-6.31,2.53,2.53,0,0,0-.89-3.36A2.46,2.46,0,0,0,50,109Z" transform="translate(-1.47 -0.62)" fill="#fff"/><path d="M45.26,109.19l16.5-7,8-3.43L74,96.92l2-.86.68-.28c1-.39,0,.16-.28-.51L76.1,94h0c-.84,3,3.88,4.35,4.68,1.3a3.61,3.61,0,0,0-2.43-4.42c-1.86-.56-3.58.42-5.25,1.13l-10,4.26L42.81,105a2.44,2.44,0,1,0,2.45,4.23Z" transform="translate(-1.47 -0.62)" fill="#fff"/><path d="M50.47,112.41l25.7-11.6-2.49-4.24a129.36,129.36,0,0,0-23.56,23.14l4.11,2.38a16.52,16.52,0,0,1,6.32-10.88,2.47,2.47,0,0,0-1.89-4.49,56.15,56.15,0,0,1-17,.36,2.46,2.46,0,0,0-2.45,2.46A2.51,2.51,0,0,0,41.69,112,60.2,60.2,0,0,0,60,111.45L58.07,107a21.34,21.34,0,0,0-8.57,13.82,2.51,2.51,0,0,0,1.13,2.76,2.42,2.42,0,0,0,2.94-.38,124.8,124.8,0,0,1,22.58-22.36,2.46,2.46,0,0,0-2.49-4.24L48,108.17a2.47,2.47,0,0,0-.89,3.36,2.53,2.53,0,0,0,3.37.88Z" transform="translate(-1.47 -0.62)" fill="#fff"/><path d="M10.57,78.37c1.16,8.34,2.08,16.76,3.59,25,.68,3.69,1.56,7.85,3.52,11.07a7.14,7.14,0,0,0,3.93,3.36,4.8,4.8,0,0,0,5.19-2.1,26.26,26.26,0,0,0,2.76-5.63,36.62,36.62,0,0,0,1.9-6.47,2.52,2.52,0,0,0-1.71-3,2.48,2.48,0,0,0-3,1.72,36.88,36.88,0,0,1-1.82,6.27c-.35.89-.75,1.75-1.17,2.61-.19.36-.65,1.71-1,1.89.18-.08-.28-.35-.45-.57A8.34,8.34,0,0,1,21,110.2a40.57,40.57,0,0,1-1.74-5.89c-1-4.33-1.45-8.77-2.06-13.16l-2-14.05a2.48,2.48,0,0,0-3-1.72,2.51,2.51,0,0,0-1.7,3Z" transform="translate(-1.47 -0.62)" fill="#fff"/><path d="M26.9,101.44a13.73,13.73,0,0,0,4.28,13.81,13.14,13.14,0,0,0,14.43,1.64,13,13,0,0,0,6-5.8,2.53,2.53,0,0,0-.89-3.36,2.48,2.48,0,0,0-3.35.88A8.77,8.77,0,0,1,36.68,113c-3.93-1.37-6.12-6.37-5-10.24.85-3-3.93-4.34-4.74-1.3Z" transform="translate(-1.47 -0.62)" fill="#fff"/><path d="M47.49,107.22a147.1,147.1,0,0,0,25.2-45.47c1-3-3.72-4.29-4.73-1.3A140.63,140.63,0,0,1,44,103.76a2.51,2.51,0,0,0,0,3.46,2.47,2.47,0,0,0,3.47,0Z" transform="translate(-1.47 -0.62)" fill="#fff"/><path d="M68.36,64l8.4,2.24c2.79.74,6.56,2.44,8.55-.67a17.77,17.77,0,0,0,1.43-3.8l1.35-4,2.83-8.45a2.47,2.47,0,0,0-1.71-3,2.5,2.5,0,0,0-3,1.71l-4.8,14.33a5.25,5.25,0,0,0-.22.63c0-.12,0-.1,0,0s0,.21.39-.16c.81-.5.4-.14.08-.36a3.27,3.27,0,0,0-1-.24l-3.54-1-7.46-2c-3-.81-4.36,3.93-1.31,4.73Z" transform="translate(-1.47 -0.62)" fill="#fff"/><path d="M65.44,61.28c5.6,2.34,12.33,4.32,17.6.07,2.06-1.66,3.17-4.09,4.1-6.51C88,52.77,88.62,50.55,90.2,49c2.26-2.23-1.21-5.69-3.46-3.47a16.75,16.75,0,0,0-3.59,6.1c-.72,1.84-1.33,3.93-2.64,5.4-3.6,3.93-9.82,1.2-13.75-.46a2.47,2.47,0,0,0-3,1.71,2.52,2.52,0,0,0,1.72,3Z" transform="translate(-1.47 -0.62)" fill="#fff"/><path d="M16.16,75.69a42,42,0,0,1,9.08,25.73c.05,3.15,4.17,3.16,4.12,0A47.56,47.56,0,0,0,19.08,72.23c-1.86-2.27-4.77,1.2-2.91,3.46Z" transform="translate(-1.47 -0.62)" fill="#fff"/><path d="M76.1,94.24a182.58,182.58,0,0,0-5.66,37.4c-.13,3.16,4.77,3.15,4.91,0a175.62,175.62,0,0,1,5.47-36.11c.79-3-3.93-4.36-4.73-1.31Z" transform="translate(-1.47 -0.62)" fill="#fff"/><path d="M74.88,131.64c-1-2.63-.69-5.31-.13-8,.64-3,1.31-6,1.7-9a65.74,65.74,0,0,0-.35-18.53c-.43-2.73-5-2.09-4.82.65A137.88,137.88,0,0,1,69,131.05l4.82.66.29-26.59c0-3.16-4.91-3.16-4.91,0l-.29,26.59c0,2.7,4.27,3.43,4.82.65a142.92,142.92,0,0,0,2.46-35.69l-4.82.66a59.16,59.16,0,0,1,.07,18c-.88,5.72-3.48,11.9-1.3,17.62a2.53,2.53,0,0,0,3,1.71,2.48,2.48,0,0,0,1.72-3Z" transform="translate(-1.47 -0.62)" fill="#fff"/><path d="M13.43,80.6a232.22,232.22,0,0,0,6.22,34.21,2.49,2.49,0,0,0,4.1,1.08c2.28-1.86,2.7-5,2.57-7.76a70.39,70.39,0,0,0-1.21-9.71A75.77,75.77,0,0,0,18.9,79.69c-1.19-2.48-5.5-.71-4.49,1.89a83.49,83.49,0,0,0,10.38,19A2.46,2.46,0,0,0,29,98.1L19.88,76.67l-4.24,2.49,8.84,18.06a2.46,2.46,0,0,0,3.35.87,2.51,2.51,0,0,0,.88-3.36L19.87,76.67a2.49,2.49,0,0,0-3.36-.88,2.54,2.54,0,0,0-.88,3.37l9.15,21.41L29,98.09a78,78,0,0,1-9.88-17.82l-4.49,1.89a71,71,0,0,1,5.46,16.23,65.46,65.46,0,0,1,1.19,8.26c.15,1.87.59,4.43-1,5.76l4.11,1.08a223.86,223.86,0,0,1-6-32.89,2.53,2.53,0,0,0-2.45-2.45A2.46,2.46,0,0,0,13.43,80.6Z" transform="translate(-1.47 -0.62)" fill="#fff"/><path d="M46.4,43.6A105,105,0,0,0,33.59,89.74,103.4,103.4,0,0,0,34,103.26c.25,2.66,3.93,3.47,4.72.66l9.26-33a2.48,2.48,0,0,0-1.78-3,2.39,2.39,0,0,0-2.62,1.1A111,111,0,0,0,30.4,107.79a2.49,2.49,0,0,0,1.81,3,2.39,2.39,0,0,0,2.21-.59c10.73-8.6,16.25-21.82,21.38-34.3A2.44,2.44,0,0,0,54.42,73a2.41,2.41,0,0,0-3,1,72.7,72.7,0,0,0-11.77,36.5c-.11,2.55,3.25,3.16,4.48,1.24,8.94-14,14.42-29.95,19.8-45.66,1-2.73-3-4.12-4.39-1.88L37.62,98.52,35,102.65a22,22,0,0,0-2.39,4.26c-1.1,3,.46,6.45,3.85,6.62,3.08.16,5-2.34,6.1-4.91,1.38-3.12,2.72-6.25,4.08-9.37l9.13-21-4.43-1.89a85.13,85.13,0,0,1-9.7,24.69l4.15,2.48c6.38-12.14,12.77-25.24,10.7-39.41a2.41,2.41,0,0,0-2.27-1.8,2.47,2.47,0,0,0-2.31,1.8l-9.8,30.8,4.72.66a260.52,260.52,0,0,1,5.31-36.9l-4.72-.65a139.36,139.36,0,0,1-4.62,37c-.8,3,3.85,4.35,4.64,1.3L60.8,46.89l3.85-14.14L60,31.44,52.8,67.76l4.73.66a155.23,155.23,0,0,0-2.09-22.05c-.48-2.83-4.63-2-4.72.66a86.12,86.12,0,0,0,6.21,35.74c.68,1.69,2.57,2.45,4,1.09A23.29,23.29,0,0,0,67.85,69.6c.26-2.24-2.74-3.08-4.11-1.74l-3.35,3.27,4,2.38,3.28-15.44-4.63-1.3a48.77,48.77,0,0,1-4,12.89l4.39,1.89,4.23-10.92a2.44,2.44,0,0,0-1.67-3,2.39,2.39,0,0,0-3,1.71L58.8,70.25c-1,2.58,3.2,4.37,4.39,1.89a53,53,0,0,0,4.5-14.07,2.52,2.52,0,0,0-1.68-3,2.41,2.41,0,0,0-3,1.71L59.71,72.25a2.49,2.49,0,0,0,1.76,3,2.41,2.41,0,0,0,2.26-.61l3.36-3.27L63,69.63a17.9,17.9,0,0,1-5.5,10.8l4,1.08a83,83,0,0,1-6-34.43l-4.72.65a145.4,145.4,0,0,1,1.93,20.74c0,2.66,4.16,3.45,4.72.64L64.58,32.8c.6-3.07-3.85-4.38-4.64-1.31L46.59,81,42.75,95.14l4.63,1.3A144.47,144.47,0,0,0,52.19,58.1c0-2.7-4.13-3.42-4.72-.66A268.65,268.65,0,0,0,42,95.65c-.2,2.86,3.92,3.18,4.72.65l9.74-30.81H51.82c1.85,12.66-4.57,24.87-10.22,35.63-1.45,2.78,2.56,5.2,4.16,2.48A89.66,89.66,0,0,0,56,77.65a2.48,2.48,0,0,0-1.39-2.89,2.35,2.35,0,0,0-3,1L44.3,92.43l-3.58,8.25-1.75,4a15.12,15.12,0,0,1-1.65,3.38c.13-.15-.6.71-.61.46,0,.07.5,0,.29.29a2.37,2.37,0,0,0,.15-.47,11.4,11.4,0,0,1,1-1.7q2.47-3.93,5-7.77l9.66-15.14,11-17.19-4.39-1.89C54,80,48.72,95.45,40,109.14l4.48,1.25a67.67,67.67,0,0,1,11.1-34l-4.39-1.89C46.35,86.26,41.09,98.54,31,106.61l4,2.46A107.87,107.87,0,0,1,47.66,71.51l-4.39-1.89-9.22,33,4.72.64A100.55,100.55,0,0,1,45,57.91a95,95,0,0,1,5.53-11.83C52.07,43.33,47.92,40.84,46.4,43.6Z" transform="translate(-1.47 -0.62)" fill="#fff" stroke="#fff" stroke-miterlimit="10" stroke-width="2"/><path d="M61.86,29.76l-.48,11.18c-.12,2.82-.65,6.32,1.44,8.59,2.48,2.73,6.11,1.22,8.21-1.14s4.09-5.08,4.59-8.18a8,8,0,0,0-2.53-7.42,5.88,5.88,0,0,0-8,.52,9.47,9.47,0,0,0-2.3,8.16c.44,3.06,2,5.89,2.21,9a16,16,0,0,1-6.84,14.41L61.75,67A101.78,101.78,0,0,1,63.22,46H58.59a63.08,63.08,0,0,1,1.56,18.07,2.45,2.45,0,0,0,2.41,2.45A2.48,2.48,0,0,0,65,64.11,45.1,45.1,0,0,0,55,32.44c-1.76-2.19-5.09.62-3.76,3l6,10.79c1.85,3.3,4.09,6.61,5.35,10.21,2.41,6.87.65,14.45-2.39,20.85a111.92,111.92,0,0,1-6.33,11.13c-1.65,2.68,2.5,5.15,4.15,2.49,4.17-6.73,8.45-13.75,9.91-21.67a29,29,0,0,0-.1-12c-1-4-3.14-7.59-5.13-11.13L55.42,32.94l-3.77,3a40.06,40.06,0,0,1,8.5,28.19H65A67.92,67.92,0,0,0,63.22,44.7c-.53-2.26-4.2-2.42-4.63,0A106.83,106.83,0,0,0,57,66.93a2.45,2.45,0,0,0,2.45,2.44,2.49,2.49,0,0,0,1.16-.32,20.81,20.81,0,0,0,8.21-10.9c1.59-4.77,1.11-9.46-.4-14.16-.65-2-1.57-4.42-.48-6.44.63-1.19,1.63-1.78,2.46-.72,1.07,1.39.51,3.29-.32,4.74a21.72,21.72,0,0,1-1.92,2.74c-.41.51-1.18,1.67-1.85,1.81.07,0,0,0,0-.14a4.12,4.12,0,0,1-.18-1.21c0-1.53.1-3.07.17-4.58l.44-10.46c.13-3.16-4.67-3.16-4.81,0Z" transform="translate(-1.47 -0.62)" fill="#fff"/><path d="M65,70.51A32.87,32.87,0,0,0,75,47L70,47.63a18,18,0,0,1,.79,8.66h4.85c-.86-3.74.56-7.56,1.42-11.17s1.39-7.55,0-11.14c-1.25-3.27-3.81-6.22-7.51-6.94a8.8,8.8,0,0,0-9.34,3.66C58.92,32.91,61.5,35,63.69,34a25.12,25.12,0,0,0,10.6-9.38l-4.59-.58a43.31,43.31,0,0,1,3,18.75c-.18,3.12,4.85,3.1,5,0a47,47,0,0,0-3.24-20,2.57,2.57,0,0,0-3.2-1.6,2.5,2.5,0,0,0-1.39,1,20.46,20.46,0,0,1-8.81,7.64l3.44,3.31c.93-1.55,3.2-1.84,4.86-1.07,2.26,1,3.29,3.75,3.44,6,.22,3.22-.83,6.32-1.57,9.41a21.49,21.49,0,0,0-.52,10.11c.52,2.22,4.46,2.38,4.85,0a23.26,23.26,0,0,0-.79-11.23c-.86-2.54-5-2.17-4.94.64a28,28,0,0,1-8.47,20.1c-2.26,2.22,1.29,5.64,3.56,3.42Z" transform="translate(-1.47 -0.62)" fill="#fff"/><path d="M53.31,88.45a4.15,4.15,0,0,1-.09,1l-.06.52v.14c-.12.69-.25,1.38-.41,2.06s-.37,1.37-.59,2l-.36,1c-.07.16-.12.33-.19.49l-.1.24c.06-.14.05-.13,0,0A24,24,0,0,1,47,102.84a2.46,2.46,0,0,0,3,3.85,60.3,60.3,0,0,1,12.59-4.41,2.47,2.47,0,0,0,1.72-3,2.51,2.51,0,0,0-3-1.72,65.9,65.9,0,0,0-13.75,4.91l3,3.85a28.76,28.76,0,0,0,7.75-17.86A2.45,2.45,0,0,0,55.76,86,2.51,2.51,0,0,0,53.31,88.45Z" transform="translate(-1.47 -0.62)" fill="#fff"/><path d="M34.07,93.75c-.94-15.25,2-30.45,8.31-42.13a3.72,3.72,0,0,0,0-3.52,1.22,1.22,0,0,0-2.23,0C33.31,60.71,30,77.18,30.93,93.75c0,1.36.72,2.45,1.57,2.49s1.57-1.12,1.57-2.49Z" transform="translate(-1.47 -0.62)" fill="#fff"/><path d="M70.7,31.82l4.74-1.58a2.62,2.62,0,0,0,1.46-1.13,2.49,2.49,0,0,0,.25-1.89A2.44,2.44,0,0,0,76,25.76a2.41,2.41,0,0,0-1.89-.25l-4.74,1.57a2.69,2.69,0,0,0-1.46,1.13,2.46,2.46,0,0,0,2.77,3.61Z" transform="translate(-1.47 -0.62)" fill="#fff"/><path d="M65.72,30.73l-3.13,4.11a1.72,1.72,0,0,0-.29.91,1.81,1.81,0,0,0,0,1,2.48,2.48,0,0,0,3,1.72l.59-.26a2.42,2.42,0,0,0,.87-.87l3.16-4.1a1.78,1.78,0,0,0,.29-.92,1.81,1.81,0,0,0,0-1,2.47,2.47,0,0,0-3-1.71l-.57.25a2.47,2.47,0,0,0-.89.87Z" transform="translate(-1.47 -0.62)" fill="#fff"/><path d="M23.38,19.36,24,33.05l.33,6.87a22.34,22.34,0,0,0,.87,6.3,11.37,11.37,0,0,0,7.71,6.87c4.14,1.26,8.54.47,12.69-.31,2.33-.44,1.34-4-1-3.55-3.57.66-7.36,1.39-10.92.26a7.53,7.53,0,0,1-5.46-6.34,114.36,114.36,0,0,1-.63-11.57l-.59-12.23c-.12-2.36-3.8-2.37-3.68,0Z" transform="translate(-1.47 -0.62)" fill="#fff"/><path d="M42.2,46.34c-5.34.82-10.38-2.68-12.66-6.85-2.92-5.31-1.59-11.78.75-17a1.85,1.85,0,0,0-1.41-2.27,2.07,2.07,0,0,0-2.48,1.3c-2.88,6.4-3.86,14.24,0,20.51a17.06,17.06,0,0,0,16.86,7.9c2.57-.4,1.48-3.95-1.08-3.58Z" transform="translate(-1.47 -0.62)" fill="#fff"/><path d="M25.64,22.81a135,135,0,0,0-1.05,22.38,6.2,6.2,0,0,0,1.32,4.05c1.09,1.2,2.69,1.35,4.16,1.49l11.1,1c1.71.16,2.23-2.45.89-3.26-2.86-1.69-6.06-1.6-9.16-2.4-2-.51-5.48-2.49-3.92-5.15,1.14-1.92-1.79-3.72-2.9-1.76-2,3.38,0,7.52,3.15,9.2,3.49,1.87,7.73,1.11,11.14,3.13l.84-3.26-9.54-.93c-.9-.08-2.91.12-3.44-.78A3.74,3.74,0,0,1,28,45V42.51a158.53,158.53,0,0,1,1.09-19.72A1.73,1.73,0,0,0,27.4,21a1.76,1.76,0,0,0-1.68,1.75Z" transform="translate(-1.47 -0.62)" fill="#fff"/><path d="M11.22,72l2.58,10a1.83,1.83,0,0,0,2.27,1.28,1.85,1.85,0,0,0,1.28-1.28l1.54-11.05a1.84,1.84,0,0,0-3.55-1l-3.13,8.31a1.84,1.84,0,0,0,1.28,2.27,1.9,1.9,0,0,0,2.27-1.28l3.13-8.32-3.55-1L13.8,81h3.55L14.77,71a1.84,1.84,0,0,0-3.55,1Z" transform="translate(-1.47 -0.62)" fill="#fff"/><path d="M45.33,112.9A20.39,20.39,0,0,0,48.1,127a1.85,1.85,0,0,0,3.18-1.87A16.08,16.08,0,0,1,49,119.6a16.85,16.85,0,0,1-.16-5.71,1.88,1.88,0,0,0-1.29-2.27,1.86,1.86,0,0,0-2.26,1.28Z" transform="translate(-1.47 -0.62)" fill="#fff"/><path d="M69.82,65.33l11.07,2a1.91,1.91,0,0,0,2.27-1.29,1.88,1.88,0,0,0-1.29-2.27l-11.07-2a1.9,1.9,0,0,0-2.27,1.29A1.87,1.87,0,0,0,69.82,65.33Z" transform="translate(-1.47 -0.62)" fill="#fff"/><path d="M74.76,61.52a71.83,71.83,0,0,0,3-25.76c-.15-2.36-4-2.38-3.81,0a68.63,68.63,0,0,1-2.87,24.78c-.7,2.27,3,3.24,3.68,1Z" transform="translate(-1.47 -0.62)" fill="#fff"/><path d="M77.76,45.54a35,35,0,0,0-4-20.23,2.26,2.26,0,0,0-2.86-.66,1.75,1.75,0,0,0-.74,2.51,31.81,31.81,0,0,1,3.45,18.38,2,2,0,0,0,2.08,1.84,2,2,0,0,0,2.09-1.84Z" transform="translate(-1.47 -0.62)" fill="#fff"/><path d="M87.89,46.5l-.31-4.86a1.23,1.23,0,1,0-2.45,0v8.42c0,1.13,1.79,1.79,2.29.62l5-11.78A1.28,1.28,0,0,0,92,37.22a1.25,1.25,0,0,0-1.68.43l-3.62,5.89,2.24,1a20,20,0,0,1,4.45-8.84c1-1.19-.68-2.94-1.73-1.74a22.69,22.69,0,0,0-5.09,9.88,1.24,1.24,0,0,0,2.25,1l3.62-5.89-2.12-1.25-5,11.78,2.28.62V41.65H85.17l.3,4.86c.09,1.57,2.54,1.58,2.46,0Z" transform="translate(-1.47 -0.62)" fill="#fff"/><path d="M89.85,46.72a34.4,34.4,0,0,1,14.22-8.33l-1.18-2L85.22,50.23,87,52l8.43-7.16-1.74-1.74L92.2,44.56c-1.1,1.14.63,2.88,1.73,1.74l1.45-1.49c1.11-1.16-.55-2.75-1.74-1.74l-8.4,7.1a1.23,1.23,0,0,0,0,1.74,1.26,1.26,0,0,0,1.73,0l17.67-13.8c1-.79-.09-2.38-1.19-2.06A37,37,0,0,0,88.11,45c-1.14,1.11.6,2.83,1.73,1.73Z" transform="translate(-1.47 -0.62)" fill="#fff"/><path d="M89.45,51.42c3.76-.1,7.51,0,11.27.14a1.23,1.23,0,0,0,0-2.45,29.66,29.66,0,0,1-10.18-3.2L89.29,48a36.06,36.06,0,0,0,9,3.29,1.25,1.25,0,0,0,1.5-.87,1.22,1.22,0,0,0-.85-1.5,33.42,33.42,0,0,1-8.39-3,1.25,1.25,0,0,0-1.68.43A1.23,1.23,0,0,0,89.29,48a33.29,33.29,0,0,0,11.43,3.54V49.11C97,49,93.21,48.86,89.45,49c-1.57,0-1.58,2.51,0,2.46Z" transform="translate(-1.47 -0.62)" fill="#fff"/><path d="M74.51,60.92c3.21.45,6.78.79,9.6-1.58a11.74,11.74,0,0,0,2.82-3.93A40,40,0,0,1,89.07,51a1.85,1.85,0,0,0,0-2.13,1.09,1.09,0,0,0-1.74,0A30.36,30.36,0,0,0,85.22,53a11.41,11.41,0,0,1-2.17,3.62c-2.39,2.29-5.76,1.73-8.54,1.33a1.41,1.41,0,0,0-1.23,1.51A1.43,1.43,0,0,0,74.51,61Z" transform="translate(-1.47 -0.62)" fill="#fff"/><path d="M86.07,48.53c-.81-2.77.25-5.7-.21-8.53s-2.1-5-3.69-7.2a1.23,1.23,0,0,0-1.7-.36,1.24,1.24,0,0,0-.41,1.6,18.06,18.06,0,0,0,7.2,8.14,1.23,1.23,0,0,0,1.25-2.12,15.92,15.92,0,0,1-6.34-7.26L80.06,34c1.49,2,3.17,4.24,3.45,6.82.29,2.8-.62,5.55.2,8.33a1.23,1.23,0,0,0,2.36-.66Z" transform="translate(-1.47 -0.62)" fill="#fff"/><path d="M89.09,41.88a40.69,40.69,0,0,0,7.33-11.7c.52-1.27-1.63-2.18-2.25-1-2.58,5.16-5.25,10.69-4.52,16.62a1.27,1.27,0,0,0,1.23,1.23,1.24,1.24,0,0,0,1.23-1.23c-.69-5.52,1.77-10.58,4.18-15.38l-2.24-1a37.16,37.16,0,0,1-6.68,10.61c-1.05,1.18.67,2.94,1.72,1.74Z" transform="translate(-1.47 -0.62)" fill="#fff"/><path d="M6.06,58.43,10.52,77a1,1,0,0,0,1.27.85,1.28,1.28,0,0,0,.71-1.51L8,57.79A1,1,0,0,0,6.75,57,1.26,1.26,0,0,0,6.06,58.43Z" transform="translate(-1.47 -0.62)" fill="#fff"/><path d="M14.14,70.39c-1.1-3.37-2.28-6.7-3.57-10-.64-1.64-1.3-3.26-2-4.85C8,54.36,7,53.08,5.87,54.15s-.17,3.27.22,4.6c.51,1.73,1,3.46,1.61,5.16Q9.35,69,11.28,74.05c.58,1.51,2.36.19,1.78-1.33q-3.09-8-5.5-16.46a2,2,0,0,0-.14-.5c-.82,0-1.13.18-.9.56a3.57,3.57,0,0,0,.39.87c.27.61.52,1.21.77,1.81.54,1.32,1.07,2.64,1.59,4,1,2.66,2,5.37,2.88,8.12a1.05,1.05,0,0,0,1.27.91,1.4,1.4,0,0,0,.72-1.62Z" transform="translate(-1.47 -0.62)" fill="#fff"/><path d="M1.57,70.65A114.11,114.11,0,0,0,12.51,91.26c.86,1.28,2.86,0,2-1.25A113.53,113.53,0,0,1,3.56,69.4C3,68,1,69.2,1.57,70.64Z" transform="translate(-1.47 -0.62)" fill="#fff"/><path d="M1.74,70.23a101.62,101.62,0,0,1,9.52,15.08l2.06-1.24-2-3.17a30.54,30.54,0,0,1-1.91-3.09l.17.62v-.19l-.18.62.1-.13-1,.61h.16L8,79.18a49.53,49.53,0,0,1,4.54,2.94c1.28.85,2.48-1.27,1.2-2.12l-3.4-2.26a3.86,3.86,0,0,0-1.74-.89,1.37,1.37,0,0,0-1.42,1.21,2.72,2.72,0,0,0,.64,1.76L9,81.6l2.31,3.68a1.17,1.17,0,0,0,1.63.44A1.25,1.25,0,0,0,13.35,84h0A103.64,103.64,0,0,0,3.48,68.47a1.18,1.18,0,0,0-1.68,0,1.28,1.28,0,0,0,0,1.73Z" transform="translate(-1.47 -0.62)" fill="#fff"/><path d="M14.44,69.09,16,51.76h-2.3L15,76.88l2.25-.32a59.48,59.48,0,0,1-1.53-14l-2.26.32A38.5,38.5,0,0,1,16,76.47a1.15,1.15,0,1,0,2.3,0A40.53,40.53,0,0,0,15.7,62.28a1.13,1.13,0,0,0-1.42-.83,1.23,1.23,0,0,0-.83,1.16A62.22,62.22,0,0,0,15.06,77.2a1.16,1.16,0,0,0,1.45.81,1.23,1.23,0,0,0,.81-1.13L16,51.76a1.15,1.15,0,1,0-2.3,0L12.14,69.09c-.14,1.57,2.16,1.56,2.3,0Z" transform="translate(-1.47 -0.62)" fill="#fff"/><path d="M18.47,75.69a32.36,32.36,0,0,0,1.71-13.2l-2.11.33a138.4,138.4,0,0,0,4.42,20.67c.36,1.21,2.26,1.12,2.09-.33a39.83,39.83,0,0,0-4-13.55,1,1,0,0,0-1.48-.4,1.27,1.27,0,0,0-.51,1,27.13,27.13,0,0,0,3,12,1,1,0,0,0,1.49.3,1.35,1.35,0,0,0,.35-1.54A24.3,24.3,0,0,1,20.71,70.2l-2,.62A36.81,36.81,0,0,1,22.4,83.14l2.1-.33a138.27,138.27,0,0,1-4.42-20.66,1.06,1.06,0,0,0-2.09.32A30.19,30.19,0,0,1,16.44,75a1.08,1.08,0,1,0,2.06.66Z" transform="translate(-1.47 -0.62)" fill="#fff"/><path d="M11.77,78.36l-.27-7.85a1.27,1.27,0,0,0-1.23-1.23A1.25,1.25,0,0,0,9,70.51l.28,7.85a1.23,1.23,0,1,0,2.45,0Z" transform="translate(-1.47 -0.62)" fill="#fff"/><path d="M27.69,37.14c1.68-5,7.85-6,12.38-6.77,1.42-.23,1-2.36-.32-2.41a57.09,57.09,0,0,1-13.61-2.23,1.23,1.23,0,0,0-1.51.88,1.54,1.54,0,0,0,0,.3l.09.8a1.27,1.27,0,0,0,1.23,1.23,1.25,1.25,0,0,0,1.23-1.23l-.09-.8L25.5,28.09a58.28,58.28,0,0,0,14.25,2.32L39.43,28c-3.07.5-6.19,1-8.93,2.55a10.92,10.92,0,0,0-5.18,5.94c-.5,1.5,1.86,2.15,2.37.65Z" transform="translate(-1.47 -0.62)" fill="#fff"/><path d="M27.45,31.75A22.33,22.33,0,0,0,34,30.37,1.23,1.23,0,0,0,33.3,28a21.67,21.67,0,0,1-2.94.9c-.5.11-1,.18-1.49.26h-.58c-.26,0-.53.06-.8.07a1.26,1.26,0,0,0-1.22,1.3h0a1.25,1.25,0,0,0,1.23,1.22Z" transform="translate(-1.47 -0.62)" fill="#fff"/><path d="M15.78,8.4a70,70,0,0,1,8,33,1.23,1.23,0,1,0,2.45,0A72.42,72.42,0,0,0,17.9,7.16c-.74-1.4-2.85-.16-2.12,1.24Z" transform="translate(-1.47 -0.62)" fill="#fff"/><path d="M15.83,7.67A111.69,111.69,0,0,0,27,24.87a1.24,1.24,0,0,0,1.73,0,1.26,1.26,0,0,0,0-1.73A109.14,109.14,0,0,1,18,6.45c-.74-1.4-2.86-.16-2.12,1.24Z" transform="translate(-1.47 -0.62)" fill="#fff"/><path d="M26.59,19.57c1.66-5.72,3.25-11.78,1.64-17.67a1.24,1.24,0,0,0-2.42.34q.68,13.31,2.52,26.5c.22,1.55,2.58.89,2.37-.66Q28.92,15.21,28.26,2.2l-2.41.32c1.5,5.48-.09,11.07-1.63,16.35a1.23,1.23,0,1,0,2.37.65Z" transform="translate(-1.47 -0.62)" fill="#fff"/><path d="M25.93,16.69l1,11.14,2.41-.33c-1.11-3.76-2.48-7.78-6.06-9.89a1.23,1.23,0,0,0-1.69.47,1.33,1.33,0,0,0-.16.58,6.83,6.83,0,0,0,3.32,5.59,1.26,1.26,0,0,0,1.85-1.06A17,17,0,0,1,27,19.63a1.26,1.26,0,0,0-.86-1.51,1.25,1.25,0,0,0-1.51.85,21.39,21.39,0,0,0-.47,4.22L26,22.13a4.26,4.26,0,0,1-2.1-3.47l-1.82,1.08c2.95,1.77,4,5.32,4.91,8.43a1.23,1.23,0,0,0,1.34.89,1.21,1.21,0,0,0,1.06-1.21l-1-11.14a1.25,1.25,0,0,0-1.22-1.23,1.23,1.23,0,0,0-1.23,1.23Z" transform="translate(-1.47 -0.62)" fill="#fff"/><path d="M30.75,20.66a91.42,91.42,0,0,0-.91-12.29c-.29-2-.64-3.89-1.07-5.8A3,3,0,0,0,28,.81a1.07,1.07,0,0,0-1.53.36c-.91,1.3,0,3.55.21,5,.36,2,.67,4,.91,6a96.26,96.26,0,0,1,.63,12.72h1.92V19.47c0-.75-.43-1.36-1-1.36s-1,.61-1,1.36v5.42c0,.75.43,1.36,1,1.36s1-.61,1-1.36a102.57,102.57,0,0,0-.49-11.5c-.18-1.87-.42-3.75-.71-5.6-.15-.93-.31-1.85-.48-2.77-.08-.42-.16-.84-.25-1.26S28.1,3.2,28,2.92c0-.58-.22-.44-.5.42L26.84,3a9.4,9.4,0,0,1,.4,1.78c.16.75.29,1.51.43,2.28.25,1.45.46,2.92.63,4.4a81.43,81.43,0,0,1,.55,9.25c0,.75.43,1.36,1,1.36s1-.61,1-1.36Z" transform="translate(-1.47 -0.62)" fill="#fff"/><path d="M31.93,21.24A18.68,18.68,0,0,0,39.11,11a1.23,1.23,0,0,0-.91-1.49,1.22,1.22,0,0,0-1.14.3A46.46,46.46,0,0,0,28.3,24.7a1.25,1.25,0,0,0,.86,1.51,1.27,1.27,0,0,0,1.51-.85A43.25,43.25,0,0,1,38.8,11.52l-2.06-1.19a16,16,0,0,1-6.05,8.82,1.22,1.22,0,1,0,1.24,2.11h0Z" transform="translate(-1.47 -0.62)" fill="#fff"/><path d="M32.22,28c.64-2.65,1.27-5.3,2-7.94.51-2,1.09-4.13,2.76-5.53l-2-1.49a38.49,38.49,0,0,0-4.33,15.45c-.1,1.58,2.36,1.57,2.45,0a35.86,35.86,0,0,1,4-14.21,1.23,1.23,0,0,0-2-1.49c-1.85,1.56-2.69,3.93-3.28,6.18-.71,2.78-1.35,5.59-2,8.39a1.22,1.22,0,0,0,2.36.64Z" transform="translate(-1.47 -0.62)" fill="#fff"/><path d="M28.61,41.59c-.86-2.4-2.28-6.05.37-8a6,6,0,0,1,2-.85l2.81-.8,5.88-1.65a1.3,1.3,0,1,0-.75-2.48L32.3,29.63c-1.95.56-4.17,1-5.64,2.38-3,2.85-2,6.93-.8,10.21.56,1.57,3.32.89,2.75-.67Z" transform="translate(-1.47 -0.62)" fill="#fff"/><path d="M24.59,36.43c-.88,2.84-1.71,5.8-1.31,8.83a8.92,8.92,0,0,0,3.8,6.41c4.76,3.21,10.79,1.12,15.8,3.28a1.27,1.27,0,0,0,1.68-.44,1.23,1.23,0,0,0-.44-1.68,21.78,21.78,0,0,0-7.74-1.41,19.18,19.18,0,0,1-6.87-1.18c-5.36-2.42-3.93-8.67-2.57-13.15.46-1.51-1.91-2.15-2.37-.64Z" transform="translate(-1.47 -0.62)" fill="#fff"/><path d="M88.37,41.23a39.2,39.2,0,0,1,7.21-9.75,1.23,1.23,0,1,0-1.73-1.74A41.62,41.62,0,0,0,86.25,40a1.23,1.23,0,0,0,2.12,1.25Z" transform="translate(-1.47 -0.62)" fill="#fff"/><path d="M68.77,132.58a12.32,12.32,0,0,0,.34,6,5.78,5.78,0,0,0,3.71,3.6c1.89.57,4,.24,6,.09q3.39-.27,6.77-.7a1.26,1.26,0,0,0,1.2-1.31,1.2,1.2,0,0,0-.33-.79c-2.23-2.17-5.34-2.2-8.25-2.4A7.6,7.6,0,0,1,74.09,136,2.78,2.78,0,0,1,72.83,133l-2.42-.33c-.19,2.11-.31,4.5,1,6.3,1.12,1.51,3.18,2.54,5,1.76a1.24,1.24,0,0,0,.81-1.56,1.29,1.29,0,0,0-.51-.68,8.92,8.92,0,0,1-3.68-4.34L71,135.35a10.9,10.9,0,0,0,4.21,3.49,1.23,1.23,0,0,0,1.5-.86,1.26,1.26,0,0,0-.86-1.51,8.77,8.77,0,0,1-3.11-2.85,1.23,1.23,0,0,0-2,1.19,11.75,11.75,0,0,0,4.8,5.81l.29-2.24a2.11,2.11,0,0,1-2.61-1.17c-.7-1.36-.46-3.07-.33-4.53s-2-1.61-2.41-.32c-1,3.33,2,6.1,5,6.77s6.87-.25,9.25,2l.86-2.09c-1.9.24-3.79.44-5.69.61a30.25,30.25,0,0,1-5.46.28c-3.77-.37-3.49-4.6-3.18-7.39a1.23,1.23,0,1,0-2.45,0Z" transform="translate(-1.47 -0.62)" fill="#fff"/><path d="M74.79,129.47,82.16,123l-1.73-1.73A65.76,65.76,0,0,0,74.28,128a27.17,27.17,0,0,0-2.44,3.76c-.7,1.33-1.45,2.95-.47,4.31s2.52.9,3.75.14l4.48-2.78,9.11-5.64L87,126.07c-3.37,5.55-9.81,8.23-14,13l1.73,1.74a45.89,45.89,0,0,1,7.13-6.87c1-.75-.09-2.46-1.2-2.05a15.42,15.42,0,0,0-6.42,4.46c-1,1.21.72,3,1.74,1.74a13,13,0,0,1,5.34-3.84l-1.2-2.05A46.74,46.74,0,0,0,73,139.07c-1,1.2.67,3,1.73,1.74,4.39-4.91,10.88-7.71,14.38-13.51a1.22,1.22,0,0,0-.49-1.67,1.18,1.18,0,0,0-1.18,0L80,130.26l-3.59,2.22-1.79,1.13-.9.56-.53.32c.11.15.16.19.14.1a3.1,3.1,0,0,1,.55-1.47,17.69,17.69,0,0,1,1-1.69,26.1,26.1,0,0,1,2.1-2.9c1.64-1.91,3.38-3.75,5.2-5.49,1.13-1.11-.56-2.76-1.73-1.73l-7.37,6.45c-1.19,1,.55,2.77,1.73,1.73Z" transform="translate(-1.47 -0.62)" fill="#fff"/><path d="M75.82,135.14a21.46,21.46,0,0,1,4.78-11.2c.94-1.09-.47-2.82-1.41-1.74a24,24,0,0,0-5.31,12.28,1.34,1.34,0,0,0,.7,1.51,1,1,0,0,0,1.22-.84h0Z" transform="translate(-1.47 -0.62)" fill="#fff"/><path d="M75.71,139.74a10.69,10.69,0,0,0,8.23.85,1.23,1.23,0,0,0-.65-2.37c-.29.09-.6.17-.9.24l-.42.07h-.25a9.88,9.88,0,0,1-1.72,0h-.25l-.47,0a7.9,7.9,0,0,1-.84-.2,6.54,6.54,0,0,1-1.52-.64,1.23,1.23,0,0,0-1.24,2.12Z" transform="translate(-1.47 -0.62)" fill="#fff"/><path d="M82.77,66.41c3.16,0,3.17-4.91,0-4.91S79.61,66.41,82.77,66.41Z" transform="translate(-1.47 -0.62)" fill="#fff"/><path d="M81,66.19l2.1-.21a1.85,1.85,0,0,0,1-.21,2.15,2.15,0,0,0,1.3-1.3,1.85,1.85,0,0,0,.21-1l-.09-.66a2.41,2.41,0,0,0-.63-1.08l-.5-.38A2.32,2.32,0,0,0,83.1,61l-2.1.2a1.92,1.92,0,0,0-1,.22,1.77,1.77,0,0,0-.78.51,1.69,1.69,0,0,0-.51.78,1.91,1.91,0,0,0-.21,1l.09.65a2.36,2.36,0,0,0,.63,1.08l.49.39a2.49,2.49,0,0,0,1.25.33Z" transform="translate(-1.47 -0.62)" fill="#fff"/><path d="M44.09,51.87l6.72-11.3a2.45,2.45,0,1,0-4.09-2.7,1.76,1.76,0,0,0-.14.23L39.89,49.39a2.47,2.47,0,0,0,.87,3.36,2.5,2.5,0,0,0,3.36-.88Z" transform="translate(-1.47 -0.62)" fill="#fff"/><rect x="56.61" y="44.72" width="15.2" height="12.05" fill="#fff"/><rect x="41.87" y="103.17" width="14.9" height="6.58" fill="#fff"/><rect x="28.87" y="93.67" width="21.95" height="18.95" fill="#fff" stroke="#fff" stroke-miterlimit="10"/><ellipse cx="49.96" cy="107.74" rx="9" ry="8.22" fill="#fff" stroke="#fff" stroke-miterlimit="10"/><ellipse cx="29.63" cy="103.15" rx="9" ry="8.22" fill="#fff" stroke="#fff" stroke-miterlimit="10"/><ellipse cx="42.37" cy="87.65" rx="12.29" ry="11.86" fill="#fff" stroke="#fff" stroke-miterlimit="10"/></g></svg>