<svg id="Capa_1" data-name="Capa 1" xmlns="http://www.w3.org/2000/svg" viewBox="0 0 206.73 74.04"><polygon points="59.71 0.48 85.71 36.48 59.71 73.19 82.42 73.19 108.78 37.56 82 0.48 59.71 0.48" fill="#fff"/><polygon points="134.71 1.48 159.71 47.48 159.71 73.19 178.71 73.48 178.71 46.84 205.85 1.48 185.28 1.48 170.28 29.27 155.07 1.48 134.71 1.48" fill="#fff" stroke="#fff" stroke-miterlimit="10"/><rect x="108.71" y="1.48" width="19" height="72" fill="#fff"/><path d="M2.21,67.66a39.78,39.78,0,0,0,12,4.85,41.86,41.86,0,0,0,9,1,43.29,43.29,0,0,0,15-1.94c4.49-1.5,10.11-3.38,14-8.74,4-5.53,5.5-13.83,2-20.38-2.54-4.76-6.9-7.09-10-8.74-4.5-2.4-10.15-3.95-17-5.83-4.5-1.23-7.09-1.76-8-3.88s.26-5.06,2-6.79c6-6,20.64.11,21.5.48a33.56,33.56,0,0,1,8,4.86l-.5-17a55,55,0,0,0-12-3.89,41.19,41.19,0,0,0-13-1,30.1,30.1,0,0,0-13,3.89,23,23,0,0,0-9,8.73c-.78,1.42-4.16,7.53-2,14.56a19.44,19.44,0,0,0,6,8.74,26.77,26.77,0,0,0,8,4.86c2.53,1.07,2.68.77,10,2.91,5.15,1.5,7,2.23,9,3.88,1.19,1,3.27,2.78,3,4.85s-2.76,3.29-4,3.89c-3.36,1.63-6.56,1.37-11,1a36.69,36.69,0,0,1-10-1.94,32.41,32.41,0,0,1-10-5.83Z" transform="translate(0 -0.02)" fill="#fff" stroke="#fff" stroke-miterlimit="10"/></svg>