<svg id="Capa_1" data-name="Capa 1" xmlns="http://www.w3.org/2000/svg" viewBox="0 0 209.48 212.72"><path d="M563.35,541.75a106.22,106.22,0,0,1,15-9,92,92,0,0,1,33-10,86.32,86.32,0,0,1,62,18" transform="translate(-514.55 -336.75)" fill="none" stroke="#fff" stroke-miterlimit="10" stroke-width="19"/><path d="M541.85,513.25a47.62,47.62,0,0,0,20-22c2.18-5,7.79-19.89,1-35-1.74-3.87-8.33-18.54-20.5-18.5-8,0-15.62,6.39-18,14-2.9,9.27,2.81,17.75,5,21,11.25,16.71,37.15,24.31,59,20,32.57-6.43,50.4-38.35,55-60a71,71,0,0,0,.5-25.5c-1.31-8.14-4.66-28.9-19-34-7.84-2.79-15.19.61-16,1-14.72,7-15.68,29.5-16,37a73.39,73.39,0,0,0,2.5,21.5c2,8.54,5.37,22.82,17,36a71.28,71.28,0,0,0,36,22c3,.73,38.58,9,57-12,1.95-2.23,14-16.53,8-29-3.77-7.77-13.7-13-22-11-12.32,3-15.29,20.78-16,25-4.31,25.72,17,47.1,21,51" transform="translate(-514.55 -336.75)" fill="none" stroke="#fff" stroke-miterlimit="10" stroke-width="18"/><circle cx="49.8" cy="79" r="9.5" fill="#fff" stroke="#fff" stroke-miterlimit="10"/><circle cx="104.8" cy="10" r="9.5" fill="#fff" stroke="#fff" stroke-miterlimit="10"/><circle cx="157.8" cy="79" r="9.5" fill="#fff" stroke="#fff" stroke-miterlimit="10"/></svg>