<svg id="Capa_1" data-name="Capa 1" xmlns="http://www.w3.org/2000/svg" viewBox="0 0 120.99 133.08"><defs><style>.cls-1{fill:#fff;stroke:#fff;stroke-miterlimit:10;}</style></defs><path class="cls-1" d="M591.6,385.33a68,68,0,0,1,4-7c3.38-5.58,10.24-7.77,11-8a21.65,21.65,0,0,1,12,0,25.16,25.16,0,0,1,11.5,6.5c2.29,2.28,7.11,8,5.5,10.5-1.38,2.18-7,1.2-9.5.5-3-.84-3.28-1.78-7-3-3.34-1.1-5.92-1.95-8-1-4.18,1.91-4,10.1-4,11,.24,11.95,11,19.57,13,21,3.35,2.37,7.88,5.58,12,4s5.84-7.39,6-8c1.24-4.57-.77-6.6,1-9s5.95-3.14,9-2c3.81,1.42,5.14,5.42,6,8,1.49,4.46.92,8.27,0,14s-1.38,8.57-3,11c-4.31,6.45-12.5,7.64-15,8-1.16.17-10.79,1.43-19-4-7.15-4.73-10.73-7.09-13-10-.39-.5-1.47-1.93-3-2-2-.09-3.37,2.19-5,4-1.46,1.62-4.31,3.08-10,6-11.77,6-15.26,6-16,9-.4,1.66.55,2.08,3,8,1.89,4.56,3.51,8.47,4,13,.31,2.88.86,8-2,13-.75,1.31-4.42,7.75-11,8a11.81,11.81,0,0,1-8-3c-2-1.93-2.59-4.06-4-10-1.65-7-2.48-10.49-3-13-2.76-13.4-1.25-7.42-3-16-1.31-6.43-1.74-7.79-1-10,1.29-3.83,4.67-5.93,8-8,2-1.22,2.65-1.38,12-5,0,0,5.48-2.12,13-6,2.32-1.2,3.92-2.1,5-4,1.19-2.09,1.83-5.54,0-8-2.64-3.56-8.32-2.18-9-2-1.47.38-1.91.86-4,2-2.9,1.59-3.47,1.45-10,4-7.12,2.78-10,4-10,4-3.89,1.65-5.08,2.28-7,2-3.43-.5-5.52-3.35-6-4a11.5,11.5,0,0,1-2-8,13,13,0,0,1,3-7c2.28-2.63,4.54-2.92,16-6,6.73-1.81,10.09-2.71,11-3,6.89-2.18,9-3.43,13-3a15.21,15.21,0,0,1,7,2c2.42,1.49,3.69,3.44,5,3C590.92,387.55,591.17,386.53,591.6,385.33Z" transform="translate(-534.53 -354.26)"/><path class="cls-1" d="M570.1,357.83c-1.29,1.87-1.14,3.92-1,6a15.23,15.23,0,0,0,3,8,13.77,13.77,0,0,0,7,5,10.14,10.14,0,0,0,7,0,9,9,0,0,0,5-5c1.29-3.48-.31-6.64-1-8-1.39-2.75-3.42-4.18-6-6s-3.88-2.74-6-3C575.66,354.53,572,355.11,570.1,357.83Z" transform="translate(-534.53 -354.26)"/></svg>