<svg id="Capa_1" data-name="Capa 1" xmlns="http://www.w3.org/2000/svg" viewBox="0 0 270.16 86.46"><path d="M517.55,452.21H475.42c0,8.14,4.29,12.54,12.54,12.54,4.29,0,7.37-1.43,9.57-5.17h19.25c-3.19,13.31-15.84,19.36-28.71,19.36-18.7,0-32.67-10.56-32.67-30,0-18.81,12.87-30.14,31.24-30.14,19.58,0,30.91,12.1,30.91,31.35ZM499,440.66c-1-5.39-5.94-8.91-11.33-8.91-5.83,0-10.67,3.08-11.88,8.91Z" transform="translate(-455.4 -418.77)" fill="#fff"/><path d="M588.39,477.07h-20V470.8h-.22c-3.52,5.61-10.45,8.14-17,8.14-16.72,0-28.49-14-28.49-30.14s11.55-30,28.27-30c6.49,0,13.31,2.42,17.49,7.37v-5.5h20Zm-45.1-28.16c0,7.15,4.73,12.65,12.87,12.65S569,456.06,569,448.91c0-6.93-4.73-12.76-12.87-12.76S543.29,442,543.29,448.91Z" transform="translate(-455.4 -418.77)" fill="#fff"/><path d="M639,435.16a24.87,24.87,0,0,0-10.78-2.75c-2.31,0-6.27,1-6.27,3.85,0,3.85,6.27,4.4,9,4.95,9.35,1.87,16.39,6.27,16.39,16.72,0,14.85-13.53,21-26.62,21A43.76,43.76,0,0,1,598,472.45l7.26-14c4.07,2.86,10.89,5.72,15.84,5.72,2.53,0,6.27-1.21,6.27-4.29,0-4.4-6.27-4.62-12.54-6.27s-12.54-4.73-12.54-14.85c0-13.86,12.54-20,24.86-20a44.86,44.86,0,0,1,18.59,3.63Z" transform="translate(-455.4 -418.77)" fill="#fff"/><path d="M649.88,420.64H673l15.07,28.93,14.74-28.93h22.77l-45.21,84.59H657.91l19.25-35.86Z" transform="translate(-455.4 -418.77)" fill="#fff"/></svg>